<?xml version="1.0" encoding="utf-8"?>
<!-- Generator: Adobe Illustrator 25.1.0, SVG Export Plug-In . SVG Version: 6.00 Build 0)  -->
<svg version="1.1" id="Layer_1" xmlns="http://www.w3.org/2000/svg" xmlns:xlink="http://www.w3.org/1999/xlink" x="0px" y="0px"
	 viewBox="0 0 1920 1080" style="enable-background:new 0 0 1920 1080;" xml:space="preserve">
<style type="text/css">
	.st0{clip-path:url(#SVGID_2_);}
	.st1{fill:none;stroke:#AEB6C1;stroke-width:0.5;stroke-miterlimit:10;}
</style>
<g>
	<defs>
		<rect id="SVGID_1_" width="1920" height="1080"/>
	</defs>
	<clipPath id="SVGID_2_">
		<use xlink:href="#SVGID_1_"  style="overflow:visible;"/>
	</clipPath>
	<g class="st0">
		<g>
			<g>
				<g>
					<g>
						<g>
							<g>
								<polygon class="st1" points="51.93,1100.48 -55.48,1207.9 -16.17,1354.63 130.57,1393.95 237.98,1286.53 198.67,1139.8 
																	"/>
								<polygon class="st1" points="-163.15,1315.57 -270.57,1422.98 -231.25,1569.72 -84.52,1609.04 22.9,1501.62 -16.42,1354.89 
																	"/>
								<polygon class="st1" points="-378.24,1530.65 -485.65,1638.07 -446.34,1784.8 -299.6,1824.12 -192.19,1716.7 
									-231.5,1569.97 								"/>
								<polygon class="st1" points="-593.32,1745.74 -700.74,1853.16 -661.42,1999.89 -514.69,2039.21 -407.27,1931.79 
									-446.59,1785.06 								"/>
							</g>
							<g>
								<polyline class="st1" points="291.5,1232.63 144.77,1193.32 37.35,1300.73 76.67,1447.47 								"/>
								<polyline class="st1" points="76.41,1447.72 -70.32,1408.4 -177.74,1515.82 -138.42,1662.55 								"/>
								<polyline class="st1" points="-138.67,1662.8 -285.4,1623.49 -392.82,1730.9 -353.5,1877.64 								"/>
								<polyline class="st1" points="-353.76,1877.89 -500.49,1838.57 -607.91,1945.99 -568.59,2092.72 								"/>
							</g>
						</g>
						<g>
							<g>
								<polygon class="st1" points="424.3,1472.85 316.89,1580.27 170.15,1540.95 130.84,1394.22 238.25,1286.8 384.99,1326.12 
																	"/>
								<polygon class="st1" points="209.22,1687.94 101.8,1795.36 -44.93,1756.04 -84.25,1609.3 23.17,1501.89 169.9,1541.21 
																	"/>
								<polygon class="st1" points="-5.87,1903.02 -113.28,2010.44 -260.02,1971.12 -299.33,1824.39 -191.92,1716.97 
									-45.18,1756.29 								"/>
								<polygon class="st1" points="-220.95,2118.11 -328.37,2225.53 -475.1,2186.21 -514.42,2039.47 -407,1932.06 
									-260.27,1971.38 								"/>
							</g>
							<g>
								<polyline class="st1" points="292.15,1233.29 331.47,1380.02 224.05,1487.44 77.32,1448.12 								"/>
								<polyline class="st1" points="77.07,1448.37 116.39,1595.11 8.97,1702.52 -137.76,1663.21 								"/>
								<polyline class="st1" points="-138.02,1663.46 -98.7,1810.19 -206.12,1917.61 -352.85,1878.29 								"/>
								<polyline class="st1" points="-353.1,1878.54 -313.78,2025.28 -421.2,2132.69 -567.93,2093.38 								"/>
							</g>
						</g>
					</g>
					<g>
						<g>
							<g>
								<polygon class="st1" points="424.57,1473.12 317.16,1580.54 356.47,1727.27 503.21,1766.59 610.62,1659.17 571.31,1512.44 
																	"/>
								<polygon class="st1" points="209.49,1688.21 102.07,1795.62 141.39,1942.36 288.12,1981.68 395.54,1874.26 356.22,1727.53 
																	"/>
								<polygon class="st1" points="-5.6,1903.29 -113.01,2010.71 -73.7,2157.44 73.04,2196.76 180.45,2089.34 141.14,1942.61 
																	"/>
								<polygon class="st1" points="-220.68,2118.38 -328.1,2225.79 -288.78,2372.53 -142.05,2411.85 -34.63,2304.43 
									-73.95,2157.7 								"/>
							</g>
							<g>
								<polyline class="st1" points="664.14,1605.27 517.41,1565.96 409.99,1673.37 449.31,1820.11 								"/>
								<polyline class="st1" points="449.05,1820.36 302.32,1781.04 194.9,1888.46 234.22,2035.19 								"/>
								<polyline class="st1" points="233.97,2035.44 87.24,1996.13 -20.18,2103.54 19.14,2250.28 								"/>
								<polyline class="st1" points="18.88,2250.53 -127.85,2211.21 -235.27,2318.63 -195.95,2465.36 								"/>
							</g>
						</g>
						<g>
							<g>
								<polygon class="st1" points="796.94,1845.49 689.53,1952.91 542.79,1913.59 503.48,1766.86 610.89,1659.44 757.63,1698.76 
																	"/>
								<polygon class="st1" points="581.86,2060.58 474.44,2168 327.71,2128.68 288.39,1981.94 395.81,1874.53 542.54,1913.85 
																	"/>
								<polygon class="st1" points="366.77,2275.66 259.36,2383.08 112.62,2343.76 73.31,2197.03 180.72,2089.61 327.46,2128.93 
																	"/>
								<polygon class="st1" points="151.69,2490.75 44.27,2598.17 -102.46,2558.85 -141.78,2412.11 -34.36,2304.7 112.37,2344.02 
																	"/>
							</g>
							<g>
								<polyline class="st1" points="664.79,1605.93 704.11,1752.66 596.69,1860.08 449.96,1820.76 								"/>
								<polyline class="st1" points="449.71,1821.01 489.03,1967.75 381.61,2075.16 234.88,2035.84 								"/>
								<polyline class="st1" points="234.62,2036.1 273.94,2182.83 166.52,2290.25 19.79,2250.93 								"/>
								<polyline class="st1" points="19.54,2251.18 58.86,2397.92 -48.56,2505.33 -195.29,2466.02 								"/>
							</g>
						</g>
					</g>
				</g>
				<g>
					<g>
						<g>
							<g>
								<polygon class="st1" points="912.27,240.14 804.86,347.56 844.17,494.29 990.91,533.61 1098.32,426.19 1059.01,279.46 
																	"/>
								<polygon class="st1" points="697.19,455.23 589.77,562.64 629.09,709.38 775.82,748.7 883.24,641.28 843.92,494.55 								
									"/>
								<polygon class="st1" points="482.1,670.31 374.69,777.73 414,924.46 560.74,963.78 668.15,856.36 628.84,709.63 								"/>
								<polygon class="st1" points="267.02,885.4 159.6,992.81 198.92,1139.55 345.65,1178.87 453.07,1071.45 413.75,924.72 
																	"/>
							</g>
							<g>
								<polyline class="st1" points="1151.84,372.29 1005.11,332.98 897.69,440.39 937.01,587.13 								"/>
								<polyline class="st1" points="936.75,587.38 790.02,548.06 682.61,655.48 721.92,802.21 								"/>
								<polyline class="st1" points="721.67,802.46 574.94,763.15 467.52,870.56 506.84,1017.3 								"/>
								<polyline class="st1" points="506.58,1017.55 359.85,978.23 252.43,1085.65 291.75,1232.38 								"/>
							</g>
						</g>
						<g>
							<g>
								<polygon class="st1" points="1284.64,612.51 1177.23,719.93 1030.49,680.61 991.18,533.88 1098.59,426.46 1245.33,465.78 
																	"/>
								<polygon class="st1" points="1069.56,827.6 962.14,935.02 815.41,895.7 776.09,748.96 883.51,641.55 1030.24,680.87 
																	"/>
								<polygon class="st1" points="854.47,1042.68 747.06,1150.1 600.32,1110.78 561.01,964.05 668.42,856.63 815.16,895.95 
																	"/>
								<polygon class="st1" points="639.39,1257.77 531.97,1365.19 385.24,1325.87 345.92,1179.13 453.34,1071.72 600.07,1111.04 
																	"/>
							</g>
							<g>
								<polyline class="st1" points="1152.49,372.95 1191.81,519.68 1084.39,627.1 937.66,587.78 								"/>
								<polyline class="st1" points="937.41,588.03 976.73,734.77 869.31,842.18 722.58,802.86 								"/>
								<polyline class="st1" points="722.32,803.12 761.64,949.85 654.22,1057.27 507.49,1017.95 								"/>
								<polyline class="st1" points="507.24,1018.2 546.56,1164.94 439.14,1272.35 292.41,1233.04 								"/>
							</g>
						</g>
					</g>
					<g>
						<g>
							<g>
								<polygon class="st1" points="1284.91,612.78 1177.5,720.2 1216.81,866.93 1363.55,906.25 1470.96,798.83 1431.65,652.1 
																	"/>
								<polygon class="st1" points="1069.83,827.87 962.41,935.28 1001.73,1082.02 1148.46,1121.34 1255.88,1013.92 
									1216.56,867.19 								"/>
								<polygon class="st1" points="854.74,1042.95 747.33,1150.37 786.64,1297.1 933.38,1336.42 1040.79,1229 1001.48,1082.27 
																	"/>
								<polygon class="st1" points="639.66,1258.04 532.24,1365.45 571.56,1512.19 718.29,1551.51 825.71,1444.09 786.39,1297.36 
																	"/>
							</g>
							<g>
								<polyline class="st1" points="1524.48,744.93 1377.75,705.62 1270.33,813.03 1309.65,959.77 								"/>
								<polyline class="st1" points="1309.39,960.02 1162.66,920.7 1055.24,1028.12 1094.56,1174.85 								"/>
								<polyline class="st1" points="1094.31,1175.1 947.58,1135.79 840.16,1243.2 879.48,1389.94 								"/>
								<polyline class="st1" points="879.22,1390.19 732.49,1350.87 625.07,1458.29 664.39,1605.02 								"/>
							</g>
						</g>
						<g>
							<g>
								<polygon class="st1" points="1657.28,985.15 1549.87,1092.57 1403.13,1053.25 1363.82,906.52 1471.23,799.1 1617.97,838.42 
																	"/>
								<polygon class="st1" points="1442.2,1200.24 1334.78,1307.65 1188.05,1268.34 1148.73,1121.6 1256.15,1014.19 
									1402.88,1053.51 								"/>
								<polygon class="st1" points="1227.11,1415.32 1119.7,1522.74 972.96,1483.42 933.65,1336.69 1041.06,1229.27 
									1187.8,1268.59 								"/>
								<polygon class="st1" points="1012.03,1630.41 904.61,1737.83 757.88,1698.51 718.56,1551.77 825.98,1444.36 972.71,1483.68 
																	"/>
							</g>
							<g>
								<polyline class="st1" points="1525.13,745.59 1564.45,892.32 1457.03,999.74 1310.3,960.42 								"/>
								<polyline class="st1" points="1310.05,960.67 1349.37,1107.41 1241.95,1214.82 1095.22,1175.5 								"/>
								<polyline class="st1" points="1094.96,1175.76 1134.28,1322.49 1026.86,1429.91 880.13,1390.59 								"/>
								<polyline class="st1" points="879.88,1390.84 919.2,1537.58 811.78,1644.99 665.05,1605.67 								"/>
							</g>
						</g>
					</g>
				</g>
			</g>
			<g>
				<g>
					<g>
						<g>
							<g>
								<polygon class="st1" points="797.21,1845.76 689.8,1953.18 729.11,2099.91 875.85,2139.23 983.26,2031.81 943.95,1885.08 
																	"/>
								<polygon class="st1" points="582.13,2060.85 474.71,2168.26 514.03,2315 660.76,2354.32 768.18,2246.9 728.86,2100.17 
																	"/>
								<polygon class="st1" points="367.04,2275.93 259.63,2383.35 298.94,2530.08 445.68,2569.4 553.09,2461.98 513.78,2315.25 
																	"/>
								<polygon class="st1" points="151.96,2491.02 44.54,2598.43 83.86,2745.17 230.59,2784.49 338.01,2677.07 298.69,2530.34 
																	"/>
							</g>
							<g>
								<polyline class="st1" points="1036.78,1977.91 890.05,1938.6 782.63,2046.01 821.95,2192.75 								"/>
								<polyline class="st1" points="821.69,2193 674.96,2153.68 567.54,2261.1 606.86,2407.83 								"/>
								<polyline class="st1" points="606.61,2408.08 459.88,2368.77 352.46,2476.18 391.78,2622.92 								"/>
								<polyline class="st1" points="391.52,2623.17 244.79,2583.85 137.37,2691.27 176.69,2838 								"/>
							</g>
						</g>
						<g>
							<g>
								<polygon class="st1" points="1169.58,2218.13 1062.17,2325.55 915.43,2286.23 876.12,2139.5 983.53,2032.08 1130.27,2071.4 
																	"/>
								<polygon class="st1" points="954.5,2433.22 847.08,2540.64 700.35,2501.32 661.03,2354.58 768.45,2247.17 915.18,2286.49 
																	"/>
								<polygon class="st1" points="739.41,2648.3 632,2755.72 485.26,2716.4 445.95,2569.67 553.36,2462.25 700.1,2501.57 
																	"/>
								<polygon class="st1" points="524.33,2863.39 416.91,2970.81 270.18,2931.49 230.86,2784.75 338.28,2677.34 485.01,2716.66 
																	"/>
							</g>
							<g>
								<polyline class="st1" points="1037.43,1978.57 1076.75,2125.3 969.33,2232.72 822.6,2193.4 								"/>
								<polyline class="st1" points="822.35,2193.65 861.67,2340.39 754.25,2447.8 607.52,2408.48 								"/>
								<polyline class="st1" points="607.26,2408.74 646.58,2555.47 539.16,2662.89 392.43,2623.57 								"/>
								<polyline class="st1" points="392.18,2623.82 431.49,2770.56 324.08,2877.97 177.35,2838.66 								"/>
							</g>
						</g>
					</g>
					<g>
						<g>
							<g>
								<polygon class="st1" points="1169.85,2218.4 1062.44,2325.82 1101.75,2472.55 1248.49,2511.87 1355.9,2404.45 
									1316.59,2257.72 								"/>
								<polygon class="st1" points="954.77,2433.49 847.35,2540.9 886.67,2687.64 1033.4,2726.95 1140.82,2619.54 1101.5,2472.8 
																	"/>
								<polygon class="st1" points="739.68,2648.57 632.27,2755.99 671.58,2902.72 818.32,2942.04 925.73,2834.62 886.42,2687.89 
																	"/>
								<polygon class="st1" points="524.6,2863.66 417.18,2971.07 456.5,3117.81 603.23,3157.12 710.65,3049.71 671.33,2902.98 
																	"/>
							</g>
							<g>
								<polyline class="st1" points="1409.42,2350.55 1262.69,2311.24 1155.27,2418.65 1194.59,2565.39 								"/>
								<polyline class="st1" points="1194.33,2565.64 1047.6,2526.32 940.18,2633.74 979.5,2780.47 								"/>
								<polyline class="st1" points="979.25,2780.72 832.52,2741.41 725.1,2848.82 764.42,2995.56 								"/>
								<polyline class="st1" points="764.16,2995.81 617.43,2956.49 510.01,3063.91 549.33,3210.64 								"/>
							</g>
						</g>
						<g>
							<g>
								<polygon class="st1" points="1542.22,2590.77 1434.81,2698.19 1288.07,2658.87 1248.76,2512.14 1356.17,2404.72 
									1502.91,2444.04 								"/>
								<polygon class="st1" points="1327.14,2805.86 1219.72,2913.27 1072.99,2873.96 1033.67,2727.22 1141.09,2619.81 
									1287.82,2659.12 								"/>
								<polygon class="st1" points="1112.05,3020.94 1004.64,3128.36 857.9,3089.04 818.59,2942.31 926,2834.89 1072.74,2874.21 
																	"/>
								<polygon class="st1" points="896.97,3236.03 789.55,3343.44 642.82,3304.13 603.5,3157.39 710.92,3049.98 857.65,3089.29 
																	"/>
							</g>
							<g>
								<polyline class="st1" points="1410.07,2351.21 1449.39,2497.94 1341.97,2605.36 1195.24,2566.04 								"/>
								<polyline class="st1" points="1194.99,2566.29 1234.3,2713.03 1126.89,2820.44 980.15,2781.12 								"/>
								<polyline class="st1" points="979.9,2781.38 1019.22,2928.11 911.8,3035.53 765.07,2996.21 								"/>
								<polyline class="st1" points="764.82,2996.46 804.13,3143.2 696.72,3250.61 549.98,3211.29 								"/>
							</g>
						</g>
					</g>
				</g>
				<g>
					<g>
						<g>
							<g>
								<polygon class="st1" points="1657.55,985.42 1550.14,1092.84 1589.45,1239.57 1736.19,1278.89 1843.6,1171.47 
									1804.29,1024.74 								"/>
								<polygon class="st1" points="1442.47,1200.51 1335.05,1307.92 1374.37,1454.66 1521.1,1493.97 1628.52,1386.56 
									1589.2,1239.82 								"/>
								<polygon class="st1" points="1227.38,1415.59 1119.97,1523.01 1159.28,1669.74 1306.02,1709.06 1413.43,1601.64 
									1374.12,1454.91 								"/>
								<polygon class="st1" points="1012.3,1630.68 904.88,1738.09 944.2,1884.83 1090.93,1924.15 1198.35,1816.73 1159.03,1670 
																	"/>
							</g>
							<g>
								<polyline class="st1" points="1897.12,1117.57 1750.39,1078.26 1642.97,1185.67 1682.29,1332.41 								"/>
								<polyline class="st1" points="1682.03,1332.66 1535.3,1293.34 1427.88,1400.76 1467.2,1547.49 								"/>
								<polyline class="st1" points="1466.95,1547.74 1320.22,1508.43 1212.8,1615.84 1252.12,1762.58 								"/>
								<polyline class="st1" points="1251.86,1762.83 1105.13,1723.51 997.71,1830.93 1037.03,1977.66 								"/>
							</g>
						</g>
						<g>
							<g>
								<polygon class="st1" points="2029.92,1357.79 1922.51,1465.21 1775.77,1425.89 1736.46,1279.16 1843.87,1171.74 
									1990.61,1211.06 								"/>
								<polygon class="st1" points="1814.84,1572.88 1707.42,1680.29 1560.69,1640.98 1521.37,1494.24 1628.79,1386.83 
									1775.52,1426.14 								"/>
								<polygon class="st1" points="1599.75,1787.96 1492.34,1895.38 1345.6,1856.06 1306.29,1709.33 1413.7,1601.91 
									1560.44,1641.23 								"/>
								<polygon class="st1" points="1384.67,2003.05 1277.25,2110.46 1130.52,2071.15 1091.2,1924.41 1198.62,1817 
									1345.35,1856.31 								"/>
							</g>
							<g>
								<polyline class="st1" points="1897.77,1118.23 1937.09,1264.96 1829.67,1372.38 1682.94,1333.06 								"/>
								<polyline class="st1" points="1682.69,1333.31 1722.01,1480.05 1614.59,1587.46 1467.86,1548.14 								"/>
								<polyline class="st1" points="1467.6,1548.4 1506.92,1695.13 1399.5,1802.55 1252.77,1763.23 								"/>
								<polyline class="st1" points="1252.52,1763.48 1291.84,1910.22 1184.42,2017.63 1037.69,1978.31 								"/>
							</g>
						</g>
					</g>
					<g>
						<g>
							<g>
								<polygon class="st1" points="2030.19,1358.06 1922.78,1465.48 1962.09,1612.21 2108.83,1651.53 2216.24,1544.11 
									2176.93,1397.38 								"/>
								<polygon class="st1" points="1815.11,1573.15 1707.69,1680.56 1747.01,1827.3 1893.74,1866.61 2001.16,1759.2 
									1961.84,1612.46 								"/>
								<polygon class="st1" points="1600.02,1788.23 1492.61,1895.65 1531.92,2042.38 1678.66,2081.7 1786.07,1974.28 
									1746.76,1827.55 								"/>
								<polygon class="st1" points="1384.94,2003.32 1277.52,2110.73 1316.84,2257.47 1463.57,2296.78 1570.99,2189.37 
									1531.67,2042.63 								"/>
							</g>
							<g>
								<polyline class="st1" points="2269.76,1490.21 2123.03,1450.9 2015.61,1558.31 2054.93,1705.05 								"/>
								<polyline class="st1" points="2054.67,1705.3 1907.94,1665.98 1800.52,1773.4 1839.84,1920.13 								"/>
								<polyline class="st1" points="1839.59,1920.38 1692.86,1881.07 1585.44,1988.48 1624.76,2135.22 								"/>
								<polyline class="st1" points="1624.5,2135.47 1477.77,2096.15 1370.35,2203.57 1409.67,2350.3 								"/>
							</g>
						</g>
						<g>
							<g>
								<polygon class="st1" points="2402.56,1730.43 2295.15,1837.85 2148.41,1798.53 2109.1,1651.8 2216.51,1544.38 
									2363.25,1583.7 								"/>
								<polygon class="st1" points="2187.48,1945.52 2080.06,2052.93 1933.33,2013.62 1894.01,1866.88 2001.43,1759.47 
									2148.16,1798.78 								"/>
								<polygon class="st1" points="1972.39,2160.6 1864.98,2268.02 1718.24,2228.7 1678.93,2081.97 1786.34,1974.55 
									1933.08,2013.87 								"/>
								<polygon class="st1" points="1757.31,2375.69 1649.89,2483.1 1503.16,2443.79 1463.84,2297.05 1571.26,2189.64 
									1717.99,2228.95 								"/>
							</g>
							<g>
								<polyline class="st1" points="2270.41,1490.87 2309.73,1637.6 2202.31,1745.02 2055.58,1705.7 								"/>
								<polyline class="st1" points="2055.33,1705.95 2094.65,1852.69 1987.23,1960.1 1840.5,1920.78 								"/>
								<polyline class="st1" points="1840.24,1921.04 1879.56,2067.77 1772.14,2175.19 1625.41,2135.87 								"/>
								<polyline class="st1" points="1625.16,2136.12 1664.47,2282.86 1557.06,2390.27 1410.33,2350.95 								"/>
							</g>
						</g>
					</g>
				</g>
			</g>
		</g>
	</g>
</g>
</svg>
